<svg width="73" height="50" viewBox="0 0 73 50" fill="none" xmlns="http://www.w3.org/2000/svg">
<line x1="1.5" y1="1.5" x2="1.5" y2="48.5" stroke="white" stroke-width="3" stroke-linecap="round"/>
<path d="M38.944 7.448V26.936H22.72V7.4H19.264V41H22.72V30.008H38.944V41H42.448V7.448H38.944ZM64.4388 30.92C68.4708 28.952 70.6788 24.824 70.6788 19.88C70.6788 12.584 66.6468 7.64 60.3108 7.448V7.4H53.5428H52.7747H48.8867V41H52.2948V31.928C52.2948 31.928 55.8948 31.928 58.7268 31.928C59.1108 31.928 59.5428 31.928 59.8788 31.928L66.2628 40.856H70.4868L63.6228 31.256C64.1988 31.016 64.4388 30.92 64.4388 30.92ZM52.2948 28.472V10.856H60.3108C65.1588 11.48 67.2228 15.176 67.2228 19.544C67.2228 23.96 64.5828 28.184 59.8307 28.472H52.2948Z" fill="white"/>
</svg>
